<svg width="2000" height="2000" viewBox="0 0 2000 2000" fill="none" xmlns="http://www.w3.org/2000/svg">
<g clip-path="url(#clip0_3_84)">
<rect width="2000" height="2000" fill="#ECECEB"/>
<path d="M2200 -200H-200V2200H2200V-200Z" fill="white"/>
<path d="M2200 -200H-200V2200H2200V-200Z" fill="#ECECEB"/>
<path d="M838.422 1092.05C837.885 1091.65 837.396 1091.3 836.958 1091.03C837.417 1091.35 837.932 1091.72 838.49 1092.13C838.49 1092.12 838.484 1092.1 838.479 1092.09C838.463 1092.08 838.443 1092.06 838.422 1092.05Z" fill="#ECECEB"/>
<path d="M844.052 1089.05C843.552 1088.86 843.187 1088.82 842.906 1088.88C843.182 1089.03 843.505 1089.22 843.859 1089.43C843.911 1089.29 843.969 1089.16 844.052 1089.05Z" fill="#ECECEB"/>
<path d="M835.208 1090.46C835.375 1090.16 836.021 1090.43 836.958 1091.03C835.318 1089.87 834.448 1089.39 835.208 1090.46Z" fill="#ECECEB"/>
<path d="M646 1465.39V622.101C646 601.632 657.214 585.492 679.646 573.684C702.089 561.882 730.833 553.028 765.875 547.122C800.917 541.205 837.333 537.466 875.125 535.893C912.917 534.309 947.948 533.721 980.229 534.122C1012.52 534.512 1036.93 534.705 1053.46 534.705C1112.51 534.705 1164.68 549.08 1209.96 577.83C1255.23 606.57 1290.67 645.153 1316.25 693.58C1341.84 741.997 1354.65 795.726 1354.65 854.768C1354.65 913.825 1341.84 967.57 1316.25 1016C1290.67 1064.41 1255.23 1103.19 1209.96 1132.33C1164.68 1161.46 1112.51 1176.02 1053.46 1176.02C1035.34 1176.02 1007.79 1176.21 970.792 1176.6C933.792 1177 894.818 1176.02 853.875 1173.66L855.042 1465.39H646ZM1132.6 854.768C1132.6 813.049 1119.61 778.997 1093.62 752.622C1067.64 726.236 1033.39 713.039 990.875 713.039C955.443 713.039 925.125 723.278 899.917 743.747C874.719 764.221 858.979 791.387 852.688 825.247V885.476C859.771 918.549 876.104 945.518 901.688 966.393C927.281 987.257 957.01 997.684 990.875 997.684C1030.23 997.684 1063.69 984.304 1091.25 957.539C1118.82 930.763 1132.6 896.507 1132.6 854.768Z" fill="#202A32"/>
<mask id="mask0_3_84" style="mask-type:luminance" maskUnits="userSpaceOnUse" x="813" y="671" width="375" height="358">
<path d="M813 671H1188V1028.68H813V671Z" fill="white"/>
</mask>
<g mask="url(#mask0_3_84)">
<path d="M851.99 926.661C852.609 926.036 853.354 925.719 853.99 925.87C854.495 927.036 853.573 927.135 851.99 926.661ZM850.521 933.802C849.859 933.583 849.625 932.443 849.318 931.724C850.016 933.302 845.443 930.547 840.88 927.484C841.005 925.224 839.469 921.458 841.089 921.151C840.807 920.995 840.573 920.87 840.391 920.776L840.453 919.198C841.297 919.786 842.344 920.984 843.151 922.354C842.755 922.12 842.385 921.901 842.042 921.703C841.474 923.354 843.505 926.917 844.698 928.839C845.844 928.307 845.62 927.495 846.167 927.297C846.932 927.724 847.688 928.464 848.411 929.219C848.609 929.484 848.813 929.74 849.021 929.99L849.073 930.625C849.641 931.109 850.12 931.729 850.568 932.271C850.729 932.755 850.75 933.255 850.521 933.802ZM1186.09 868.682C1185.04 868.792 1184.91 866.469 1184.32 865.38C1184.92 865.021 1185.08 863.401 1184.92 860.818C1184.83 859.526 1184.66 858 1184.42 856.281C1184.16 854.568 1183.7 852.698 1183.23 850.661C1182.36 846.562 1180.81 842.047 1179.16 837.26C1178.28 834.896 1177.23 832.531 1176.23 830.109C1175.7 828.911 1175.23 827.672 1174.64 826.5C1174.06 825.328 1173.48 824.146 1172.9 822.964C1170.64 818.198 1167.96 813.745 1165.54 809.51C1164.29 807.432 1162.98 805.474 1161.79 803.583C1160.58 801.703 1159.48 799.885 1158.33 798.286C1156.08 795.062 1154.26 792.24 1152.9 790.141C1151.53 788.062 1150.73 786.589 1150.74 785.911C1149.85 784.854 1148.95 783.75 1148.11 782.583C1144.92 776.49 1141.96 770.141 1138.83 763.922C1138.05 762.365 1137.32 760.745 1136.53 759.214C1135.72 757.672 1134.93 756.13 1134.13 754.599C1132.53 751.516 1131.02 748.422 1129.15 745.38C1127.35 742.328 1125.53 739.302 1123.68 736.344C1121.67 733.469 1119.62 730.661 1117.52 727.948C1115.49 725.193 1113.12 722.729 1110.79 720.359C1109.61 719.177 1108.42 718.031 1107.22 716.927C1106.62 716.38 1106.04 715.823 1105.4 715.318C1104.76 714.828 1104.11 714.333 1103.47 713.844C1100.62 712.984 1097.6 712.073 1094.69 711.193C1093.27 710.75 1091.79 710.422 1090.35 710.161C1088.93 709.896 1087.55 709.687 1086.23 709.578C1083.71 705.339 1080.86 708.141 1076.56 704.995C1075.74 703.073 1074.85 701.375 1073.94 699.885C1073.02 698.406 1072.11 697.089 1071.14 696.109C1069.23 694.083 1067.45 692.854 1066.09 692.307C1063.35 691.208 1062.37 692.844 1064.81 695.995C1063.46 695.51 1062.13 694.995 1060.82 694.464C1059.5 693.932 1058.12 693.5 1056.81 692.984C1054.15 692.005 1051.55 690.922 1048.97 689.917C1043.69 688.135 1038.64 686.151 1033.61 685.167L1030.05 684.812C1028.88 684.708 1027.7 684.573 1026.5 684.573C1024.11 684.51 1021.73 684.474 1019.35 684.469C1018.33 684.5 1017.45 684.391 1016.67 684.208C1015.88 684.057 1015.2 683.797 1014.58 683.448C1013.36 682.745 1012.41 681.682 1011.52 680.401C1008.89 680.474 1007.15 680.333 1005.81 680.224C1004.47 680.109 1003.55 679.859 1002.62 679.536C1001.68 679.208 1000.73 678.818 999.323 678.406C997.917 678.005 996.052 677.526 993.286 677.375C992.62 676.526 990.531 676.469 987.766 676.875C987.073 676.974 986.339 677.104 985.573 677.25C984.813 677.417 984.026 677.656 983.219 677.88C981.594 678.354 979.901 678.896 978.224 679.464C974.849 680.516 971.599 682.042 968.979 683.052C967.672 683.573 966.521 684 965.599 684.281C964.682 684.583 964.005 684.776 963.604 684.719L965.219 683.859C962.172 684.349 959.292 684.427 956.464 684.318C955.047 684.234 953.672 684.224 952.297 684.161C950.911 684.094 949.542 684.021 948.172 683.953C946.792 683.88 945.401 683.797 944.01 683.792C942.63 683.823 941.24 683.891 939.833 684.016C937.021 684.297 934.083 684.714 931.172 685.896C929.099 686.573 927.016 687.286 924.927 688.026C922.859 688.792 920.839 689.703 918.786 690.578C914.656 692.276 910.724 694.458 906.74 696.573C898.938 701.099 891.344 706.156 884.427 712.021L881.807 714.172C880.953 714.906 880.13 715.687 879.286 716.443C877.625 717.974 875.969 719.5 874.318 721.016C872.74 722.63 871.172 724.24 869.604 725.839C868.833 726.641 868.042 727.422 867.292 728.25C866.552 729.089 865.818 729.922 865.083 730.76C859.099 737.318 853.891 744.458 849.005 751.469C849.729 752.016 850.286 751.854 850.792 751.359C851.318 750.88 851.797 750.057 852.318 749.24C853.37 747.599 854.604 745.958 856.656 747.177C855.219 749.156 853.703 751.073 852.224 753.052C850.792 755.083 849.328 757.109 847.844 759.146C847.078 760.146 846.396 761.224 845.698 762.292L843.583 765.516C842.901 766.578 842.12 767.714 841.51 768.724L839.698 771.755L836.099 777.885C835.005 779.99 833.937 782.109 832.891 784.255L831.354 787.495C830.87 788.578 830.458 789.703 830.021 790.812C829.161 793.042 828.354 795.292 827.609 797.568C825.792 800.635 823.094 804.38 821.594 805.703C820.203 808.594 820.516 809.609 820.911 810.411C821.312 811.219 821.859 811.828 821.234 814.021L817.922 814.068C818.281 815.844 818.141 817.292 817.719 818.578C817.307 819.87 816.714 821.021 816.021 822.151C814.672 824.422 813.161 826.687 813.464 829.958C814.724 830.417 814.755 832.766 814.505 835.026C811.047 834.927 814.323 842.057 811.203 841.599L811.458 841.677C811.391 843.068 811.604 844.062 811 845.76C811.297 846.422 812.104 848.484 813.182 851.182C813.458 851.859 813.729 852.573 814.052 853.318C814.385 854.057 814.734 854.828 815.094 855.62C815.818 857.177 816.573 858.818 817.339 860.464C818.807 863.724 820.552 866.885 821.953 869.365C823.349 871.849 824.432 873.646 824.87 874.224C824.719 874.646 824.609 875.057 824.479 875.479C825.167 878.937 827.948 879.964 828.219 877.875L828.75 882.104L828.432 881.661C828.63 883.057 828.745 884.479 829.021 885.865C828.896 886.687 827.526 887.901 825.766 887.021C827.49 889.161 828.74 891.651 828.698 894.172C828.828 892.391 828.99 890.516 829.203 888.589C829.417 886.661 829.63 884.703 830.057 882.708C830.453 880.724 830.891 878.74 831.38 876.812C831.625 875.849 831.885 874.901 832.151 873.964C832.427 873.036 829.407 885.329 829.735 884.433C830.11 885.084 832.786 898.917 832.911 899.812C833.068 900.703 834.005 875.448 834.042 876.443C834.109 878.427 832.62 880.208 833.063 881.661C832.198 883.656 833.328 886.823 833.062 890.042C832.943 891.646 832.865 893.328 832.812 894.995C832.823 896.646 832.875 898.276 832.911 899.812C833.479 901.021 837.406 900.75 836.625 904.042C834.469 906.255 837.792 907.135 836.781 910.068C835.63 908.984 834.974 907.719 834.505 906.396C834.057 905.062 833.865 903.646 833.516 902.25C832.089 902.943 832.073 904.792 832.422 906.776C832.854 908.734 833.63 910.812 833.604 912.042C834.25 912.385 834.813 913.958 835.469 915.828C836.089 917.708 837.036 919.786 838.104 921.245C835.891 921.083 836.297 922.583 836.661 924.37C836.943 924.578 837.245 924.818 837.542 925.052C837.245 924.828 836.953 924.615 836.672 924.406C836.865 925.339 837.042 926.344 836.828 927.234C837.13 928.422 837.745 929.234 838.359 929.562C838.964 929.901 839.542 929.781 839.802 929.115C840.5 928.969 840.781 928.417 840.859 927.682C841.469 928.161 842.094 928.635 842.729 929.109C847.172 932.5 851.302 935.573 850.823 934.51C850.76 933.729 851.151 933.458 851.672 933.349C852 933.536 852.328 933.542 852.677 933.255C853.443 933.214 854.109 933.099 853.917 932.083L852.76 931.646C850.948 927.167 855.594 927.005 860.281 926.62C865.302 926.229 870.344 925.552 868.432 920.604C866.99 926.396 864.167 921.089 861.651 916.958C862.672 915.969 863.609 913.224 863.229 909.755C861.802 907.198 861.229 908.714 860.089 908.573C860.25 906.74 859.953 903.542 862 903.224C858.943 901.927 862.24 899.323 860.568 897.078C858.818 895.151 859.604 897.562 858 896.297C857.62 894.536 857.167 892.422 856.734 890.391C856.63 889.885 856.531 889.385 856.438 888.896C856.375 888.396 856.312 887.911 856.25 887.453C856.141 886.521 856.057 885.672 856.01 884.953C857.057 883.948 858.521 881.979 860.359 881.151C860.51 881.839 860.651 882.521 860.807 883.203C860.057 883.167 859.641 883.51 860.349 885.484C860.677 885.193 860.964 884.99 861.214 884.854C864.281 897.375 868.948 909.63 875.26 921.339C884.073 937.688 894.891 951.203 907.073 962.13C906.698 961.974 906.323 961.818 905.953 961.672C903.005 960.417 900.198 959.229 897.495 958.521C894.865 957.75 892.437 957.354 890.234 957.729C887.641 955.38 885.5 953.318 883.365 951.562C881.198 949.797 879.25 948.203 877.302 946.615C875.323 945.021 873.286 943.438 871.312 941.479C870.302 940.516 869.26 939.484 868.188 938.349C867.656 937.781 867.083 937.203 866.552 936.568C866.036 935.927 865.5 935.26 864.953 934.557C864.281 937.078 861.599 934.672 859.177 932.49C858.578 931.943 857.99 931.411 857.458 930.984C856.969 930.604 856.531 930.328 856.172 930.219C855.443 929.995 855.021 930.448 855.141 932.177C855.286 937.651 856.453 940.052 857.599 942.167C858.839 944.266 860.094 946.078 860.682 950.812L861.573 949.906C866.021 958.844 871.297 967.594 877.625 975.75C883.964 983.88 891.198 991.5 899.208 998.359C915.271 1012.06 934.443 1022.45 954.797 1028.94C968.937 1031.18 983.344 1033.22 997.974 1034C1012.58 1034.82 1027.39 1034.08 1041.46 1031.18C1042.41 1030.98 1043.35 1030.77 1044.3 1030.57C1045.24 1030.32 1046.18 1030.08 1047.13 1029.84C1049.01 1029.34 1050.9 1028.84 1052.79 1028.34C1054.67 1027.76 1056.54 1027.18 1058.42 1026.59L1061.23 1025.69L1064 1024.68C1065.85 1024.01 1067.7 1023.33 1069.53 1022.62C1071.34 1021.86 1073.15 1021.1 1074.96 1020.33C1076.77 1019.59 1078.54 1018.75 1080.29 1017.9C1082.05 1017.04 1083.8 1016.22 1085.52 1015.33C1099.23 1008.15 1111.54 999.49 1121.15 990.354C1122.24 989.193 1123.4 988.307 1124.61 987.589C1125.82 986.885 1127.08 986.339 1128.34 985.812C1130.88 984.776 1133.63 984.12 1136.24 982.891C1144.96 973.922 1154.53 963.161 1162.56 950.5C1170.46 937.812 1176.8 923.25 1179.36 908.849C1179.21 909.38 1179.03 909.875 1178.9 910.198C1180.49 902.646 1182.57 896.193 1184.04 889.568C1184.42 887.911 1184.78 886.255 1185.12 884.578C1185.44 882.901 1185.64 881.208 1185.84 879.479C1186.03 877.75 1186.22 875.984 1186.27 874.193C1186.27 872.396 1186.22 870.562 1186.09 868.682Z" fill="#ECECEB"/>
</g>
</g>
<defs>
<clipPath id="clip0_3_84">
<rect width="2000" height="2000" fill="white"/>
</clipPath>
</defs>
</svg>
